<mxfile host="app.diagrams.net" modified="2023-12-03T04:31:29.219Z" agent="Mozilla/5.0 (Windows NT 10.0; Win64; x64) AppleWebKit/537.36 (KHTML, like Gecko) Chrome/119.0.0.0 Safari/537.36" etag="PU0mclYmfLiTHa6UVTm3" version="22.1.5" type="github">
  <diagram name="Page-1" id="aX5mK0y8ShshwkjP0of3">
    <mxGraphModel dx="1588" dy="848" grid="1" gridSize="10" guides="1" tooltips="1" connect="1" arrows="1" fold="1" page="1" pageScale="1" pageWidth="850" pageHeight="1100" math="0" shadow="0">
      <root>
        <mxCell id="0" />
        <mxCell id="1" parent="0" />
        <mxCell id="Fmcm4zUUbYmsG4OJXJq8-2" value="Reserve Room" style="text;strokeColor=none;align=center;fillColor=none;html=1;verticalAlign=middle;whiteSpace=wrap;rounded=0;" vertex="1" parent="1">
          <mxGeometry x="20" y="130" width="60" height="30" as="geometry" />
        </mxCell>
        <mxCell id="Fmcm4zUUbYmsG4OJXJq8-22" value="" style="shape=table;startSize=0;container=1;collapsible=0;childLayout=tableLayout;fontSize=16;" vertex="1" parent="1">
          <mxGeometry x="20" y="220" width="710" height="620" as="geometry" />
        </mxCell>
        <mxCell id="Fmcm4zUUbYmsG4OJXJq8-23" value="" style="shape=tableRow;horizontal=0;startSize=0;swimlaneHead=0;swimlaneBody=0;strokeColor=inherit;top=0;left=0;bottom=0;right=0;collapsible=0;dropTarget=0;fillColor=none;points=[[0,0.5],[1,0.5]];portConstraint=eastwest;fontSize=16;" vertex="1" parent="Fmcm4zUUbYmsG4OJXJq8-22">
          <mxGeometry width="710" height="39" as="geometry" />
        </mxCell>
        <mxCell id="Fmcm4zUUbYmsG4OJXJq8-39" value="&lt;font style=&quot;font-size: 12px;&quot;&gt;Secretary&lt;/font&gt;" style="shape=partialRectangle;html=1;whiteSpace=wrap;connectable=0;strokeColor=inherit;overflow=hidden;fillColor=none;top=0;left=0;bottom=0;right=0;pointerEvents=1;fontSize=16;" vertex="1" parent="Fmcm4zUUbYmsG4OJXJq8-23">
          <mxGeometry width="355" height="39" as="geometry">
            <mxRectangle width="355" height="39" as="alternateBounds" />
          </mxGeometry>
        </mxCell>
        <mxCell id="Fmcm4zUUbYmsG4OJXJq8-24" value="&lt;font style=&quot;font-size: 12px;&quot;&gt;Sytem&lt;/font&gt;" style="shape=partialRectangle;html=1;whiteSpace=wrap;connectable=0;strokeColor=inherit;overflow=hidden;fillColor=none;top=0;left=0;bottom=0;right=0;pointerEvents=1;fontSize=16;" vertex="1" parent="Fmcm4zUUbYmsG4OJXJq8-23">
          <mxGeometry x="355" width="355" height="39" as="geometry">
            <mxRectangle width="355" height="39" as="alternateBounds" />
          </mxGeometry>
        </mxCell>
        <mxCell id="Fmcm4zUUbYmsG4OJXJq8-27" value="" style="shape=tableRow;horizontal=0;startSize=0;swimlaneHead=0;swimlaneBody=0;strokeColor=inherit;top=0;left=0;bottom=0;right=0;collapsible=0;dropTarget=0;fillColor=none;points=[[0,0.5],[1,0.5]];portConstraint=eastwest;fontSize=16;" vertex="1" parent="Fmcm4zUUbYmsG4OJXJq8-22">
          <mxGeometry y="39" width="710" height="581" as="geometry" />
        </mxCell>
        <mxCell id="Fmcm4zUUbYmsG4OJXJq8-40" style="shape=partialRectangle;html=1;whiteSpace=wrap;connectable=0;strokeColor=inherit;overflow=hidden;fillColor=none;top=0;left=0;bottom=0;right=0;pointerEvents=1;fontSize=16;" vertex="1" parent="Fmcm4zUUbYmsG4OJXJq8-27">
          <mxGeometry width="355" height="581" as="geometry">
            <mxRectangle width="355" height="581" as="alternateBounds" />
          </mxGeometry>
        </mxCell>
        <mxCell id="Fmcm4zUUbYmsG4OJXJq8-28" value="" style="shape=partialRectangle;html=1;whiteSpace=wrap;connectable=0;strokeColor=inherit;overflow=hidden;fillColor=none;top=0;left=0;bottom=0;right=0;pointerEvents=1;fontSize=16;" vertex="1" parent="Fmcm4zUUbYmsG4OJXJq8-27">
          <mxGeometry x="355" width="355" height="581" as="geometry">
            <mxRectangle width="355" height="581" as="alternateBounds" />
          </mxGeometry>
        </mxCell>
        <mxCell id="Fmcm4zUUbYmsG4OJXJq8-1" value="" style="ellipse;fillColor=strokeColor;html=1;" vertex="1" parent="1">
          <mxGeometry x="180" y="290" width="30" height="30" as="geometry" />
        </mxCell>
        <mxCell id="Fmcm4zUUbYmsG4OJXJq8-4" value="Login" style="html=1;align=center;verticalAlign=top;rounded=1;absoluteArcSize=1;arcSize=10;dashed=0;whiteSpace=wrap;" vertex="1" parent="1">
          <mxGeometry x="125" y="370" width="140" height="40" as="geometry" />
        </mxCell>
      </root>
    </mxGraphModel>
  </diagram>
</mxfile>
